<svg width="1024" height="1024" viewBox="0 0 1024 1024" xmlns="http://www.w3.org/2000/svg">
  <title>Maclipp App Icon</title>
  <defs>
    <linearGradient id="background" x1="120" y1="96" x2="900" y2="928" gradientUnits="userSpaceOnUse">
      <stop offset="0" stop-color="#241C52"/>
      <stop offset="1" stop-color="#090713"/>
    </linearGradient>
    <linearGradient id="paper" x1="384" y1="300" x2="670" y2="770" gradientUnits="userSpaceOnUse">
      <stop offset="0" stop-color="#FFFFFF"/>
      <stop offset="1" stop-color="#EDEBF5"/>
    </linearGradient>
  </defs>

  <rect x="64" y="64" width="896" height="896" rx="216" fill="url(#background)"/>

  <rect x="258" y="246" width="390" height="480" rx="48" fill="#8C84A8" opacity="0.34"/>
  <rect x="318" y="292" width="416" height="502" rx="52" fill="url(#paper)"/>

  <rect x="427" y="236" width="200" height="92" rx="42" fill="#D9D5E7"/>
  <rect x="470" y="266" width="114" height="32" rx="16" fill="#17122F"/>

  <rect x="390" y="420" width="272" height="26" rx="13" fill="#C9C4DB"/>
  <rect x="390" y="482" width="224" height="26" rx="13" fill="#D8D4E3"/>
  <rect x="390" y="544" width="252" height="26" rx="13" fill="#D8D4E3"/>

  <rect x="620" y="626" width="128" height="128" rx="32" fill="#32296A"/>
  <rect x="648" y="654" width="72" height="72" rx="18" fill="#F7F6FB"/>
</svg>
